HIERARCHY
ROOT Hips
{
    OFFSET   0.000000   0.000000   0.000000
    CHANNELS 6 Xposition Yposition Zposition Zrotation Xrotation Yrotation
    JOINT Chest
    {
        OFFSET   0.000000   8.007240   0.000000
        CHANNELS 3 Zrotation Xrotation Yrotation
        JOINT Chest2
        {
            OFFSET   0.000000  22.077100   0.000000
            CHANNELS 3 Zrotation Xrotation Yrotation
            JOINT Neck
            {
                OFFSET   0.000000  23.254800   0.000000
                CHANNELS 3 Zrotation Xrotation Yrotation
                JOINT Head
                {
                    OFFSET   0.000000  14.370000   1.956600
                    CHANNELS 3 Zrotation Xrotation Yrotation
                    End Site
                    {
                        OFFSET   0.000000  19.566000   0.000000
                    }
                }
            }
            JOINT LeftCollar
            {
                OFFSET   3.911900  19.017000  -0.467064
                CHANNELS 3 Zrotation Xrotation Yrotation
                JOINT LeftShoulder
                {
                    OFFSET  10.383700   0.000000   0.000000
                    CHANNELS 3 Zrotation Xrotation Yrotation
                    JOINT LeftElbow
                    {
                        OFFSET  26.662100   0.001476   0.000517
                        CHANNELS 3 Zrotation Xrotation Yrotation
                        JOINT LeftWrist
                        {
                            OFFSET  28.869000  -0.000025  -0.000106
                            CHANNELS 3 Zrotation Xrotation Yrotation
                            JOINT LeftFinger0
                            {
                                OFFSET   2.044660  -2.323460   3.252850
                                CHANNELS 3 Zrotation Xrotation Yrotation
                                JOINT LeftFinger01
                                {
                                    OFFSET   3.088130   0.000000   0.000000
                                    CHANNELS 3 Zrotation Xrotation Yrotation
                                    JOINT LeftFinger02
                                    {
                                        OFFSET   2.639460   0.000000   0.000000
                                        CHANNELS 3 Zrotation Xrotation Yrotation
                                        End Site
                                        {
                                            OFFSET   2.582190   0.000000   0.000000
                                        }
                                    }
                                }
                            }
                            JOINT LeftFinger1
                            {
                                OFFSET   8.364480   0.000000   3.252850
                                CHANNELS 3 Zrotation Xrotation Yrotation
                                JOINT LeftFinger11
                                {
                                    OFFSET   4.646930   0.000000   0.000000
                                    CHANNELS 3 Zrotation Xrotation Yrotation
                                    JOINT LeftFinger12
                                    {
                                        OFFSET   2.323460   0.000000   0.000000
                                        CHANNELS 3 Zrotation Xrotation Yrotation
                                        End Site
                                        {
                                            OFFSET   2.273050   0.000000   0.000000
                                        }
                                    }
                                }
                            }
                            JOINT LeftFinger2
                            {
                                OFFSET   8.364490   0.000015   1.078090
                                CHANNELS 3 Zrotation Xrotation Yrotation
                                JOINT LeftFinger21
                                {
                                    OFFSET   5.111620   0.000000   0.000000
                                    CHANNELS 3 Zrotation Xrotation Yrotation
                                    JOINT LeftFinger22
                                    {
                                        OFFSET   2.788160   0.000016   0.000000
                                        CHANNELS 3 Zrotation Xrotation Yrotation
                                        End Site
                                        {
                                            OFFSET   2.727660   0.000000   0.000000
                                        }
                                    }
                                }
                            }
                            JOINT LeftFinger3
                            {
                                OFFSET   7.899780   0.000017  -1.078090
                                CHANNELS 3 Zrotation Xrotation Yrotation
                                JOINT LeftFinger31
                                {
                                    OFFSET   4.646930   0.000000   0.000000
                                    CHANNELS 3 Zrotation Xrotation Yrotation
                                    JOINT LeftFinger32
                                    {
                                        OFFSET   2.323470   0.000000   0.000000
                                        CHANNELS 3 Zrotation Xrotation Yrotation
                                        End Site
                                        {
                                            OFFSET   2.273050   0.000000   0.000000
                                        }
                                    }
                                }
                            }
                            JOINT LeftFinger4
                            {
                                OFFSET   7.435090   0.000000  -3.252850
                                CHANNELS 3 Zrotation Xrotation Yrotation
                                JOINT LeftFinger41
                                {
                                    OFFSET   3.717550   0.000000   0.000000
                                    CHANNELS 3 Zrotation Xrotation Yrotation
                                    JOINT LeftFinger42
                                    {
                                        OFFSET   1.858770   0.000000   0.000000
                                        CHANNELS 3 Zrotation Xrotation Yrotation
                                        End Site
                                        {
                                            OFFSET   1.818440   0.000000   0.000000
                                        }
                                    }
                                }
                            }
                        }
                    }
                }
            }
            JOINT RightCollar
            {
                OFFSET  -3.911900  19.017000  -0.467063
                CHANNELS 3 Zrotation Xrotation Yrotation
                JOINT RightShoulder
                {
                    OFFSET -10.383700   0.000019   0.000000
                    CHANNELS 3 Zrotation Xrotation Yrotation
                    JOINT RightElbow
                    {
                        OFFSET -26.662100   0.001175   0.000102
                        CHANNELS 3 Zrotation Xrotation Yrotation
                        JOINT RightWrist
                        {
                            OFFSET -28.869000   0.000016  -0.000079
                            CHANNELS 3 Zrotation Xrotation Yrotation
                            JOINT RightFinger0
                            {
                                OFFSET  -2.044660  -2.323490   3.252850
                                CHANNELS 3 Zrotation Xrotation Yrotation
                                JOINT RightFinger01
                                {
                                    OFFSET  -3.088140   0.000000   0.000000
                                    CHANNELS 3 Zrotation Xrotation Yrotation
                                    JOINT RightFinger02
                                    {
                                        OFFSET  -2.639460   0.000000   0.000000
                                        CHANNELS 3 Zrotation Xrotation Yrotation
                                        End Site
                                        {
                                            OFFSET  -2.582190   0.000000   0.000000
                                        }
                                    }
                                }
                            }
                            JOINT RightFinger1
                            {
                                OFFSET  -8.364480   0.000000   3.252850
                                CHANNELS 3 Zrotation Xrotation Yrotation
                                JOINT RightFinger11
                                {
                                    OFFSET  -4.646930   0.000000   0.000000
                                    CHANNELS 3 Zrotation Xrotation Yrotation
                                    JOINT RightFinger12
                                    {
                                        OFFSET  -2.323470   0.000000   0.000000
                                        CHANNELS 3 Zrotation Xrotation Yrotation
                                        End Site
                                        {
                                            OFFSET  -2.273050   0.000000   0.000000
                                        }
                                    }
                                }
                            }
                            JOINT RightFinger2
                            {
                                OFFSET  -8.364480   0.000000   1.078090
                                CHANNELS 3 Zrotation Xrotation Yrotation
                                JOINT RightFinger21
                                {
                                    OFFSET  -5.111620   0.000000   0.000000
                                    CHANNELS 3 Zrotation Xrotation Yrotation
                                    JOINT RightFinger22
                                    {
                                        OFFSET  -2.788160   0.000000   0.000000
                                        CHANNELS 3 Zrotation Xrotation Yrotation
                                        End Site
                                        {
                                            OFFSET  -2.727660   0.000000   0.000000
                                        }
                                    }
                                }
                            }
                            JOINT RightFinger3
                            {
                                OFFSET  -7.899780   0.000000  -1.078090
                                CHANNELS 3 Zrotation Xrotation Yrotation
                                JOINT RightFinger31
                                {
                                    OFFSET  -4.646930   0.000000   0.000000
                                    CHANNELS 3 Zrotation Xrotation Yrotation
                                    JOINT RightFinger32
                                    {
                                        OFFSET  -2.323470   0.000000   0.000000
                                        CHANNELS 3 Zrotation Xrotation Yrotation
                                        End Site
                                        {
                                            OFFSET  -2.273050   0.000000   0.000000
                                        }
                                    }
                                }
                            }
                            JOINT RightFinger4
                            {
                                OFFSET  -7.435090   0.000000  -3.252850
                                CHANNELS 3 Zrotation Xrotation Yrotation
                                JOINT RightFinger41
                                {
                                    OFFSET  -3.717550   0.000000   0.000000
                                    CHANNELS 3 Zrotation Xrotation Yrotation
                                    JOINT RightFinger42
                                    {
                                        OFFSET  -1.858770   0.000000   0.000000
                                        CHANNELS 3 Zrotation Xrotation Yrotation
                                        End Site
                                        {
                                            OFFSET  -1.818440   0.000000   0.000000
                                        }
                                    }
                                }
                            }
                        }
                    }
                }
            }
        }
    }
    JOINT LeftHip
    {
        OFFSET   9.783040   0.000000   0.000000
        CHANNELS 3 Zrotation Xrotation Yrotation
        JOINT LeftKnee
        {
            OFFSET   0.000032 -41.789100  -0.002222
            CHANNELS 3 Zrotation Xrotation Yrotation
            JOINT LeftAnkle
            {
                OFFSET   0.000087 -41.133200  -0.000135
                CHANNELS 3 Zrotation Xrotation Yrotation
                JOINT LeftToe
                {
                    OFFSET   0.000000  -6.358960  14.674500
                    CHANNELS 3 Zrotation Xrotation Yrotation
                    End Site
                    {
                        OFFSET   0.000000   0.000000   3.913200
                    }
                }
            }
        }
    }
    JOINT RightHip
    {
        OFFSET  -9.783040   0.000000   0.000000
        CHANNELS 3 Zrotation Xrotation Yrotation
        JOINT RightKnee
        {
            OFFSET   0.000047 -41.789100  -0.000896
            CHANNELS 3 Zrotation Xrotation Yrotation
            JOINT RightAnkle
            {
                OFFSET  -0.000117 -41.133300  -0.000248
                CHANNELS 3 Zrotation Xrotation Yrotation
                JOINT RightToe
                {
                    OFFSET   0.000000  -6.358970  14.674500
                    CHANNELS 3 Zrotation Xrotation Yrotation
                    End Site
                    {
                        OFFSET   0.000000   0.000000   3.913200
                    }
                }
            }
        }
    }
}
MOTION
Frames: 6
Frame Time:   0.016667
 -0.792911  89.520400   1.315060  -1.260100  -3.825290  -2.081850   1.010600   3.203480  -1.748150   2.123580   6.374040  -3.561020   2.187530  -1.475220   0.054103   3.600660  -2.978450  10.409500  -6.839790   3.122900   2.855770 -69.974000  16.014200  -8.833090  -2.204010  -7.229840  -7.920860   6.093880  -5.458100   5.088570  42.465600  33.973800 -63.698600 -27.579600  -0.000887  -0.000419  -8.785790  -0.001580  -0.004320 -33.672000   2.811480  -4.210830 -27.636800   0.000350  -0.000366 -19.342800   0.000127   0.005243 -28.238800  -0.451334   0.837811 -33.703500   0.000492  -0.001439 -22.446500   0.000669   0.007456 -27.942800  -2.629560   4.943510 -32.367900   0.001575  -0.001042 -21.557000   0.000803   0.000262 -33.245000  -3.075850   4.679320 -50.057800  -0.004597   0.000522 -33.337600  -0.002267  -0.002963   5.751650   1.663890  11.264900  50.722200   2.689570  35.318600 -26.023600 -22.816700  96.511300 -67.666200  54.355800  52.301700 -46.677600  33.706400  70.634900  18.851200   0.002692  -0.000866   4.425580   0.001004   0.001666  11.203500   0.918458   4.621330   9.196390   0.001307  -0.001027   6.437490   0.000948  -0.004023   8.617070   0.592147   3.901880   8.637080  -0.004823   0.000921   5.752280   0.003105   0.005249   7.487470   0.176057   1.331520   7.489600   0.000865  -0.005593   4.988090  -0.012442  -0.008061   4.581010   0.106970   1.339090   6.873420  -0.008516  -0.004848   4.577690  -0.003212  -0.006042   2.750590   6.759320   1.476970   1.104600   0.099820   2.336240  -5.135220  -3.268990   0.375214   0.000000   0.000000  -0.000000  -0.230342   4.572600   0.424266   0.725289   3.299000  -0.681616  -2.045510  -4.384910  -0.621767   0.000000   0.000000   0.000000
 -0.795420  89.519700   1.306730  -1.259010  -3.815760  -2.079270   1.010240   3.200860  -1.740540   2.122490   6.368960  -3.545690   2.192760  -1.467410   0.054308   3.609040  -2.962810  10.356200  -6.840620   3.118200   2.867680 -69.966300  16.005900  -8.830090  -2.195050  -7.244780  -7.913000   6.094550  -5.451710   5.096080  42.471300  33.985300 -63.712800 -27.577600  -0.000845  -0.000375  -8.786730  -0.001575  -0.004271 -33.676000   2.821310  -4.224830 -27.641600   0.000310  -0.000379 -19.346800   0.000136   0.005259 -28.238900  -0.448855   0.828529 -33.709800   0.000460  -0.001382 -22.450700   0.000653   0.007466 -27.944200  -2.621230   4.927630 -32.374900   0.001559  -0.001068 -21.561700   0.000851   0.000260 -33.252100  -3.066380   4.664070 -50.065600  -0.004520   0.000514 -33.343700  -0.002201  -0.002967   5.757400   1.667590  11.260700  50.744200   2.686060  35.325200 -26.064200 -22.785500  96.466600 -67.238400  54.498800  51.675700 -46.738300  33.707600  70.729200  18.685500   0.002700  -0.000831   4.342750   0.001006   0.001652  11.209200   0.907992   4.569750   9.200590   0.001299  -0.000985   6.440440   0.000934  -0.004087   8.532550   0.613063   4.075670   8.554270  -0.004962   0.001011   5.697120   0.003125   0.005204   7.624180   0.166557   1.243110   7.626020   0.000885  -0.005634   5.078930  -0.012446  -0.008058   4.530120   0.099132   1.250510   6.796770  -0.008510  -0.004825   4.526650  -0.003229  -0.006067   2.755790   6.725770   1.474660   1.104690   0.141614   2.334980  -5.140030  -3.285710   0.378052   0.000000   0.000000  -0.000000  -0.234328   4.572360   0.422942   0.731715   3.276960  -0.681076  -2.047070  -4.373950  -0.623076  -0.000000   0.000000   0.000000
 -0.798338  89.519400   1.300580  -1.255790  -3.805620  -2.071400   1.009940   3.195250  -1.736300   2.121520   6.357850  -3.537020   2.198970  -1.456060   0.054529   3.618060  -2.939980  10.317800  -6.841240   3.116340   2.874100 -69.960500  15.977600  -8.818810  -2.188650  -7.236900  -7.906940   6.095010  -5.449320   5.099720  42.465000  33.980500 -63.704400 -27.579700  -0.000791  -0.000353  -8.787750  -0.001574  -0.004226 -33.677600   2.819460  -4.221830 -27.641400   0.000270  -0.000392 -19.350900   0.000148   0.005273 -28.238800  -0.449345   0.829887 -33.712400   0.000429  -0.001328 -22.452400   0.000639   0.007477 -27.944000  -2.622590   4.930070 -32.380400   0.001544  -0.001094 -21.565300   0.000899   0.000263 -33.253900  -3.068030   4.666330 -50.068900  -0.004443   0.000504 -33.345500  -0.002136  -0.002973   5.764180   1.671100  11.255900  50.761600   2.707620  35.325700 -26.133900 -22.783800  96.419600 -66.820600  54.620200  51.025500 -46.908200  33.809600  70.899200  18.449500   0.002709  -0.000726   4.224750   0.001009   0.001640  11.282400   0.960317   4.797250   9.263520   0.001279  -0.000941   6.484480   0.000928  -0.004158   8.497410   0.638517   4.263760   8.521080  -0.005105   0.001078   5.675030   0.003133   0.005175   7.775410   0.193285   1.418050   7.777470   0.000903  -0.005667   5.179790  -0.012440  -0.008056   4.458340   0.111538   1.426910   6.689290  -0.008490  -0.004796   4.455090  -0.003247  -0.006103   2.757320   6.754390   1.466860   1.104400   0.056983   2.336660  -5.141630  -3.239630   0.377639   0.000000   0.000000   0.000000  -0.238021   4.414430   0.421163   0.737275   3.414410  -0.681417  -2.049580  -4.363130  -0.628336  -0.000000   0.000000   0.000000
 -0.801338  89.519200   1.296030  -1.251660  -3.795780  -2.057980   1.009700   3.187990  -1.734950   2.120670   6.343380  -3.534160   2.202800  -1.441890   0.054758   3.625250  -2.911360  10.301400  -6.842010   3.116050   2.882460 -69.956400  15.944100  -8.804710  -2.185040  -7.222960  -7.903580   6.095100  -5.448680   5.100730  42.459000  33.975300 -63.696300 -27.584000  -0.000735  -0.000332  -8.788830  -0.001573  -0.004179 -33.679200   2.817620  -4.218830 -27.641100   0.000232  -0.000406 -19.355000   0.000160   0.005285 -28.238800  -0.449835   0.831245 -33.716000   0.000397  -0.001275 -22.454800   0.000625   0.007486 -27.943600  -2.624870   4.934230 -32.383400   0.001532  -0.001120 -21.567300   0.000946   0.000269 -33.254000  -3.070750   4.670220 -50.070000  -0.004365   0.000491 -33.345700  -0.002070  -0.002980   5.771350   1.677870  11.253300  50.775600   2.738870  35.325100 -26.179600 -22.786200  96.394500 -66.484200  54.698700  50.453800 -47.157300  33.954800  71.073600  18.195400   0.002716  -0.000650   4.097700   0.001012   0.001629  11.345300   1.032460   5.130710   9.320150   0.001256  -0.000898   6.524100   0.000923  -0.004228   8.468770   0.662170   4.439070   8.494370  -0.005247   0.001146   5.657240   0.003141   0.005146   7.867320   0.231339   1.675620   7.870560   0.000920  -0.005698   5.241780  -0.012434  -0.008055   4.412340   0.130352   1.686420   6.621230  -0.008476  -0.004767   4.409780  -0.003265  -0.006140   2.757790   6.782990   1.461220   1.104130  -0.027648   2.338340  -5.143260  -3.193550   0.374856  -0.000000   0.000000   0.000000  -0.241000   4.256880   0.420223   0.742737   3.551870  -0.683231  -2.053120  -4.353960  -0.637133  -0.000000   0.000000   0.000000
 -0.804029  89.518900   1.292950  -1.247110  -3.785600  -2.039130   1.009450   3.179490  -1.737280   2.119950   6.326340  -3.538650   2.203040  -1.424640   0.054991   3.627430  -2.876310  10.304900  -6.843450   3.120050   2.899430 -69.955800  15.913400  -8.790400  -2.184440  -7.209850  -7.903370   6.095330  -5.452490   5.100760  42.454800  33.979300 -63.712300 -27.590000  -0.000684  -0.000279  -8.789960  -0.001566  -0.004131 -33.684100   2.817970  -4.219030 -27.644200   0.000195  -0.000422 -19.358800   0.000172   0.005293 -28.238900  -0.445559   0.825584 -33.725900   0.000365  -0.001221 -22.461400   0.000614   0.007490 -27.943300  -2.627220   4.938690 -32.382200   0.001519  -0.001150 -21.566500   0.000994   0.000277 -33.252100  -3.073360   4.674530 -50.067200  -0.004287   0.000477 -33.344100  -0.002003  -0.002986   5.777800   1.692230  11.260300  50.796900   2.756220  35.316700 -26.237800 -22.781000  96.401900 -66.364700  54.689900  50.127500 -47.468000  34.134200  71.160900  17.982800   0.002722  -0.000726   3.991410   0.001010   0.001620  11.248600   1.059660   5.326980   9.244430   0.001236  -0.000867   6.471090   0.000916  -0.004285   8.392160   0.673762   4.557350   8.418640  -0.005382   0.001238   5.606800   0.003158   0.005094   7.787590   0.249940   1.831140   7.791670   0.000936  -0.005730   5.189250  -0.012437  -0.008059   4.437730   0.143592   1.842490   6.660150  -0.008476  -0.004742   4.435680  -0.003280  -0.006167   2.758690   6.747990   1.463000   1.103220   0.029070   2.333350  -5.148280  -3.214670   0.363076   0.000000   0.000000  -0.000000  -0.243625   4.324820   0.420316   0.748103   3.471730  -0.686052  -2.057620  -4.347520  -0.648315  -0.000000   0.000000   0.000000
 -0.806849  89.518700   1.290950  -1.242670  -3.779460  -2.017250   1.009210   3.171080  -1.741430   2.119460   6.309440  -3.546720   2.203290  -1.407310   0.055238   3.627830  -2.841110  10.311300  -6.845060   3.126350   2.917520 -69.956700  15.886000  -8.775520  -2.184060  -7.196890  -7.903280   6.094870  -5.456290   5.100740  42.451500  33.981700 -63.730000 -27.594000  -0.000634  -0.000243  -8.791110  -0.001553  -0.004080 -33.689800   2.819840  -4.220420 -27.649400   0.000159  -0.000438 -19.360800   0.000183   0.005299 -28.239100  -0.438476   0.816359 -33.736400   0.000333  -0.001169 -22.468500   0.000603   0.007491 -27.943200  -2.628640   4.941420 -32.381000   0.001509  -0.001180 -21.565700   0.001042   0.000288 -33.250400  -3.074900   4.677200 -50.064500  -0.004210   0.000460 -33.342500  -0.001936  -0.002990   5.784590   1.709270  11.271100  50.813100   2.764020  35.305000 -26.318500 -22.769600  96.415600 -66.326300  54.659000  49.917200 -47.726100  34.296100  71.220700  17.810600   0.002727  -0.000809   3.905280   0.001007   0.001610  11.109100   1.067000   5.417300   9.130500   0.001217  -0.000837   6.391350   0.000907  -0.004338   8.338680   0.683458   4.653080   8.366390  -0.005519   0.001333   5.572000   0.003178   0.005038   7.677420   0.257210   1.904050   7.681690   0.000950  -0.005764   5.116020  -0.012440  -0.008064   4.489730   0.150423   1.915440   6.738420  -0.008476  -0.004719   4.487780  -0.003295  -0.006194   2.759890   6.701820   1.465410   1.102330   0.085788   2.323510  -5.154410  -3.235790   0.346001  -0.000000   0.000000   0.000000  -0.245002   4.424220   0.420603   0.752976   3.357110  -0.692967  -2.063050  -4.344720  -0.660377  -0.000000   0.000000   0.000000
